<svg width="10" height="13" viewBox="0 0 10 13" fill="none" xmlns="http://www.w3.org/2000/svg">
<path d="M5.70457 11.7641C5.70457 11.7641 3.80941 11.6525 3.17659 11.6153C1.10277 11.493 0.892843 11.3015 0.551018 9.26862C0.399802 8.37087 0.00613079 5.66819 0.00613079 5.66819C-0.0985769 4.85302 1.17088 4.65861 1.29897 5.49407C1.29897 5.49407 1.66011 8.08161 1.81412 8.93877C2.02175 10.097 2.19737 10.2973 3.45996 10.3716L5.77929 10.5082C6.69319 10.5618 6.6017 11.8172 5.70457 11.7641ZM2.18898 2.83268C3.03198 2.83268 3.7136 2.19871 3.7136 1.41728C3.7136 0.634675 3.03198 0 2.18898 0C1.34598 0 0.66157 0.634675 0.66157 1.41728C0.66157 2.19848 1.34573 2.83268 2.18898 2.83268ZM9.75793 11.6172L7.74408 8.22459C7.54661 7.97685 7.23656 7.81004 6.87643 7.79353C6.50487 7.76026 6.13331 7.72699 5.7615 7.69373C5.51854 7.67202 5.27557 7.65031 5.03236 7.62861C4.94112 7.62035 4.84403 7.60242 4.75305 7.61398L4.41021 6.24719C4.4003 6.20118 4.39064 6.15493 4.38073 6.10893L4.34413 5.99072L3.92428 4.16267C3.87854 3.96377 3.77027 3.7913 3.62287 3.65941L3.62109 3.65328C3.5756 3.61505 3.52629 3.58131 3.47521 3.55041C3.45666 3.53885 3.43658 3.52941 3.41701 3.51903C3.39719 3.50865 3.37863 3.49638 3.35805 3.48717C3.35805 3.48717 3.3461 3.47962 3.34687 3.48269C3.34026 3.47962 3.33289 3.47797 3.32603 3.47514C3.28918 3.45933 3.25182 3.44636 3.21319 3.43456C3.18955 3.42725 3.16591 3.42088 3.14177 3.41498C3.11026 3.40743 3.079 3.40035 3.04672 3.39563C2.91355 3.37369 2.77453 3.37133 2.63348 3.39728C2.58341 3.40648 2.53513 3.42182 2.48709 3.43716L2.48328 3.43786C2.47947 3.43857 2.47642 3.44022 2.47261 3.44093C2.4599 3.44518 2.44643 3.44777 2.43398 3.45249C1.89087 3.58627 1.54599 4.09448 1.66417 4.61001L2.28759 7.32472C2.359 7.79022 2.54301 8.88852 2.73336 9.20326C2.7448 9.22261 2.75877 9.24219 2.77707 9.26248C3.03173 9.54655 3.2907 9.76432 3.71233 9.7832L6.69014 9.91768L8.4778 12.7447C8.64045 12.9042 8.85571 12.9891 9.07479 12.999C9.30682 13.0094 9.54292 12.9353 9.72489 12.7751C10.0782 12.4639 10.0934 11.9456 9.75793 11.6172Z" fill="black"/>
</svg>
