<?xml version="1.0" standalone="no"?>
<!DOCTYPE svg PUBLIC "-//W3C//DTD SVG 20010904//EN"
 "http://www.w3.org/TR/2001/REC-SVG-20010904/DTD/svg10.dtd">
<svg version="1.0" xmlns="http://www.w3.org/2000/svg"
 width="50.000000pt" height="26.000000pt" viewBox="0 0 50.000000 26.000000"
 preserveAspectRatio="xMidYMid meet">

<g transform="translate(0.000000,26.000000) scale(0.100000,-0.100000)"
fill="#000000" stroke="none">
<path d="M166 229 c4 -7 84 -29 103 -29 6 0 11 6 11 14 0 10 -16 15 -59 18
-33 1 -57 0 -55 -3z"/>
<path d="M300 220 c0 -12 63 -24 89 -15 12 3 19 11 16 16 -8 12 -105 12 -105
-1z"/>
<path d="M134 184 c-7 -37 -1 -130 9 -140 3 -3 21 -1 40 5 l34 12 0 69 c0 68
0 69 -30 80 -43 15 -45 14 -53 -26z"/>
<path d="M458 206 c-27 -20 -26 -136 2 -153 14 -9 21 -10 26 -1 4 6 3 9 -2 5
-5 -3 -9 29 -9 73 0 44 4 76 9 73 5 -4 6 -1 2 5 -9 14 -7 14 -28 -2z"/>
<path d="M210 48 c-58 -16 -53 -23 13 -18 34 3 62 10 62 15 0 14 -33 15 -75 3z"/>
<path d="M318 53 c-10 -2 -18 -9 -18 -14 0 -12 97 -12 104 0 11 17 -42 26 -86
14z"/>
</g>
</svg>
